HIERARCHY
ROOT SpineBase
{
  OFFSET 0.000000 0.000000 0.000000
  CHANNELS 6 Xposition Yposition Zposition Zrotation Xrotation Yrotation
  JOINT SpineMid
  {
    OFFSET 0.000000 33.992800 0.000000
    CHANNELS 3 Zrotation Xrotation Yrotation
    JOINT SpineShoulder
    {
      OFFSET 0.356280 25.206126 -0.917550
      CHANNELS 3 Zrotation Xrotation Yrotation
      JOINT Neck
      {
        OFFSET 0.215658 8.315522 -0.691500
        CHANNELS 3 Zrotation Xrotation Yrotation
        JOINT Head
        {
          OFFSET 5.630389 9.780136 4.974744
          CHANNELS 3 Zrotation Xrotation Yrotation
          End Site
          {
            OFFSET 0 0 0
          }
        }
      }
      JOINT ShoulderLeft
      {
        OFFSET -4.086711 -5.592830 -14.944619
        CHANNELS 3 Zrotation Xrotation Yrotation
        JOINT ElbowLeft
        {
          OFFSET -4.119420 -28.554799 -7.780975
          CHANNELS 3 Zrotation Xrotation Yrotation
          JOINT WristLeft
          {
            OFFSET 2.979341 -23.667381 -2.143528
            CHANNELS 3 Zrotation Xrotation Yrotation
            JOINT HandLeft
            {
              OFFSET 0.133096 -5.136227 3.766748
              CHANNELS 3 Zrotation Xrotation Yrotation
              JOINT HandTipLeft
              {
                OFFSET -0.192086 -7.628656 0.320408
                CHANNELS 3 Zrotation Xrotation Yrotation
                End Site
                {
                  OFFSET 0 0 0
                }
              }
              JOINT ThumbLeft
              {
                OFFSET 5.118697 1.044819 2.684650
                CHANNELS 3 Zrotation Xrotation Yrotation
                End Site
                {
                  OFFSET 0 0 0
                }
              }
            }
          }
        }
      }
      JOINT ShoulderRight
      {
        OFFSET 9.727545 -7.610093 9.374466
        CHANNELS 3 Zrotation Xrotation Yrotation
        JOINT ElbowRight
        {
          OFFSET -0.068463 -30.382862 2.862067
          CHANNELS 3 Zrotation Xrotation Yrotation
          JOINT WristRight
          {
            OFFSET 0.393893 -22.141044 2.928908
            CHANNELS 3 Zrotation Xrotation Yrotation
            JOINT HandRight
            {
              OFFSET 0.674029 -6.498157 -0.598924
              CHANNELS 3 Zrotation Xrotation Yrotation
              JOINT HandTipRight
              {
                OFFSET 0.051010 -0.278779 -0.998575
                CHANNELS 3 Zrotation Xrotation Yrotation
                End Site
                {
                  OFFSET 0 0 0
                }
              }
              JOINT ThumbRight
              {
                OFFSET 0.291039 0.554989 -2.318129
                CHANNELS 3 Zrotation Xrotation Yrotation
                End Site
                {
                  OFFSET 0 0 0
                }
              }
            }
          }
        }
      }
    }
  }
  JOINT HipLeft
  {
    OFFSET -2.801288 1.455739 -6.864992
    CHANNELS 3 Zrotation Xrotation Yrotation
    JOINT KneeLeft
    {
      OFFSET -7.156467 -34.633535 -5.236817
      CHANNELS 3 Zrotation Xrotation Yrotation
      JOINT AnkleLeft
      {
        OFFSET -11.050789 -36.254555 1.293420
        CHANNELS 3 Zrotation Xrotation Yrotation
        JOINT FootLeft
        {
          OFFSET 9.734171 -4.153048 -8.674773
          CHANNELS 3 Zrotation Xrotation Yrotation
          End Site
          {
            OFFSET 0 0 0
          }
        }
      }
    }
  }
  JOINT HipRight
  {
    OFFSET 3.964598 0.149583 -0.760803
    CHANNELS 3 Zrotation Xrotation Yrotation
    JOINT KneeRight
    {
      OFFSET -1.984383 -32.625192 21.918223
      CHANNELS 3 Zrotation Xrotation Yrotation
      JOINT AnkleRight
      {
        OFFSET -15.809625 -37.561456 1.295948
        CHANNELS 3 Zrotation Xrotation Yrotation
        JOINT FootRight
        {
          OFFSET 0.976554 -8.693393 0.507431
          CHANNELS 3 Zrotation Xrotation Yrotation
          End Site
          {
            OFFSET 0 0 0
          }
        }
      }
    }
  }
}
MOTION
Frames: 9
Frame Time: 0.033333
-50.453326 78.730458 332.468587 -0.000000 0.000000 -42.056810 0.000000 0.000000 42.056810 -0.000000 0.000000 0.000000 -0.000000 0.000000 0.000000 0.000000 0.000000 0.000000 -0.000000 0.000000 0.000000 -0.000000 0.000000 0.000000 -0.000000 0.000000 0.000000 -0.000000 0.000000 0.000000 0.000000 0.000000 0.000000 0.000000 0.000000 0.000000 -0.000000 0.000000 0.000000 -0.000000 0.000000 0.000000 -0.000000 0.000000 0.000000 -0.000000 0.000000 0.000000 0.000000 0.000000 0.000000 0.000000 0.000000 0.000000 0.000000 0.000000 42.056810 -0.000000 0.000000 0.000000 -0.000000 0.000000 0.000000 0.000000 0.000000 0.000000 0.000000 0.000000 42.056810 -0.000000 0.000000 0.000000 -0.000000 0.000000 0.000000 0.000000 0.000000 0.000000
-50.198368 78.805192 332.400421 0.144215 -0.052570 -41.896853 -0.142452 -0.057175 41.896848 -0.000000 0.000000 0.000000 -0.000000 0.000000 0.000000 0.000000 0.000000 0.000000 -0.000000 0.000000 0.000000 -0.000000 0.000000 0.000000 0.000128 2.471964 0.065189 -2.121855 -2.859478 -0.242780 0.000000 0.000000 0.000000 0.000000 0.000000 0.000000 -0.000000 0.000000 0.000000 -0.000000 0.000000 0.000000 -0.000000 0.000000 0.000000 -0.000000 0.000000 0.000000 0.000000 0.000000 0.000000 0.000000 0.000000 0.000000 -0.142452 -0.057175 41.896848 -0.000000 0.000000 0.000000 -0.000000 0.000000 0.000000 0.000000 0.000000 0.000000 -2.730548 1.816190 41.281654 1.073839 -5.994692 1.928976 4.795088 7.071031 -0.888842 0.000000 0.000000 0.000000
-49.974146 78.870700 332.352344 0.268980 -0.107720 -41.779593 -0.272353 -0.098885 41.779610 -0.000000 0.000000 0.000000 -0.000000 0.000000 0.000000 0.000000 0.000000 0.000000 -0.862824 -0.587001 0.315478 0.866088 0.582175 -0.324298 0.127687 4.519073 0.211893 -3.771711 -5.299193 -0.664319 0.000000 0.000000 0.000000 0.000000 0.000000 0.000000 -0.000000 0.000000 0.000000 -0.000000 0.000000 0.000000 -0.000000 0.000000 0.000000 -0.000000 0.000000 0.000000 0.000000 0.000000 0.000000 0.000000 0.000000 0.000000 -0.272353 -0.098885 41.779610 -0.000000 0.000000 0.000000 -0.000000 0.000000 0.000000 0.000000 0.000000 0.000000 -5.898679 4.135023 40.585087 2.503735 -13.036089 4.290136 10.825828 15.160145 -3.030621 0.000000 0.000000 0.000000
-49.780659 78.926984 332.324356 0.374149 -0.165428 -41.704450 -0.389391 -0.125412 41.704564 -0.000000 0.000000 0.000000 0.786216 -0.224556 -0.270442 0.000000 0.000000 0.000000 -1.187213 -0.830880 0.434985 1.193609 0.821665 -0.452153 0.388808 6.047122 0.438391 -4.890612 -7.221710 -1.150589 0.000000 0.000000 0.000000 0.000000 0.000000 0.000000 -0.000000 0.000000 0.000000 -0.000000 0.000000 0.000000 -0.000000 0.000000 0.000000 -0.000000 0.000000 0.000000 0.000000 0.000000 0.000000 0.000000 0.000000 0.000000 -0.389391 -0.125412 41.704564 -0.000000 0.000000 0.000000 -0.000000 0.000000 0.000000 0.000000 0.000000 0.000000 -9.554390 6.999611 40.031751 4.467520 -21.145544 7.255569 18.568326 23.783904 -7.091701 0.000000 0.000000 0.000000
-49.617909 78.974043 332.316456 0.459596 -0.225665 -41.670941 -0.493340 -0.137000 41.671257 -0.000000 0.000000 0.000000 0.764290 -0.209568 -0.268000 0.000000 0.000000 0.000000 -1.437737 -1.039185 0.529021 1.447502 1.025538 -0.555015 0.785674 6.985510 0.742582 -5.420302 -8.562283 -1.603127 0.000000 0.000000 0.000000 0.000000 0.000000 0.000000 -0.000000 0.000000 0.000000 -0.000000 0.000000 0.000000 -0.000000 0.000000 0.000000 -0.000000 0.000000 0.000000 0.000000 0.000000 0.000000 0.000000 0.000000 0.000000 -0.493340 -0.137000 41.671257 -0.000000 0.000000 0.000000 -0.000000 0.000000 0.000000 0.000000 0.000000 0.000000 -13.746462 10.430630 39.712797 7.271237 -30.275002 11.128999 28.593748 32.065547 -13.848606 0.000000 0.000000 0.000000
-49.485894 79.011878 332.328645 0.525222 -0.288404 -41.678672 -0.584053 -0.133848 41.679312 0.795664 0.177315 0.060356 -0.795854 -0.176460 -0.062812 0.000000 0.000000 0.000000 -2.410510 -1.385151 0.529944 1.626109 1.193154 -0.631695 1.316053 7.291765 1.122633 -5.310876 -9.286563 -1.956401 0.000000 0.000000 0.000000 0.000000 0.000000 0.000000 -0.795854 -0.176460 -0.062812 -0.000000 0.000000 0.000000 -0.000000 0.000000 0.000000 -0.000000 0.000000 0.000000 0.000000 0.000000 0.000000 0.000000 0.000000 0.000000 -1.183290 -0.811607 41.832226 0.898514 0.105301 -0.158683 -0.000000 0.000000 0.000000 0.000000 0.000000 0.000000 -18.515088 14.403496 39.747091 11.489820 -40.249769 16.486402 41.276823 38.801861 -23.851180 0.000000 0.000000 0.000000
-49.400817 79.076883 332.382859 0.567035 -0.366612 -42.012561 -0.013402 0.397236 42.042941 0.033975 0.223654 0.034557 -0.856984 -0.160175 -0.068289 0.000000 0.000000 0.000000 -2.594897 -1.599028 0.586836 1.753088 1.420239 -0.703539 2.383188 6.594671 1.859157 -4.515729 -9.320188 -2.408992 0.000000 0.000000 0.000000 0.000000 0.000000 0.000000 -0.856984 -0.160175 -0.068289 -0.000000 0.000000 0.000000 -0.000000 0.000000 0.000000 -0.000000 0.000000 0.000000 0.000000 0.000000 0.000000 0.000000 0.000000 0.000000 -1.341272 -0.786566 42.163806 0.956091 0.050751 -0.155739 -0.000000 0.000000 0.000000 0.000000 0.000000 0.000000 -26.423642 20.789321 40.998989 22.476198 -55.162393 29.268171 62.768376 43.579843 -42.698163 0.000000 0.000000 0.000000
-49.315960 79.108081 332.440341 0.626017 -0.429641 -42.221920 -0.030916 0.416926 42.255187 0.023242 0.250978 0.035906 -0.906577 -0.149752 -0.072669 0.000000 0.000000 0.000000 -2.624413 -1.645476 0.585034 1.733587 1.477363 -0.706971 3.415756 4.782070 2.563167 -3.276410 -8.039052 -2.704912 0.000000 0.000000 0.000000 0.000000 0.000000 0.000000 -0.906577 -0.149752 -0.072669 -0.000000 0.000000 0.000000 -0.000000 0.000000 0.000000 -0.000000 0.000000 0.000000 0.000000 0.000000 0.000000 0.000000 0.000000 0.000000 -1.542653 -0.777592 42.367889 1.038825 -0.033894 -0.150058 -0.000000 0.000000 0.000000 0.000000 0.000000 0.000000 -34.126435 26.437909 42.919271 43.478318 -66.234989 51.896545 80.386288 42.622494 -59.204576 0.000000 0.000000 0.000000
-49.273922 79.132839 332.513967 0.625859 -0.507711 -42.156899 -0.032050 0.456606 42.191744 0.016883 0.283344 0.035975 -2.056888 0.062252 0.385013 0.000000 0.000000 0.000000 -2.480938 -1.466458 0.520314 1.567946 1.317274 -0.634608 4.200141 2.267535 3.098520 -2.299816 -4.857772 -2.977552 0.000000 0.000000 0.000000 0.000000 0.000000 0.000000 -0.925433 -0.134460 -0.074534 -0.000000 0.000000 0.000000 -0.000000 0.000000 0.000000 -0.000000 0.000000 0.000000 0.000000 0.000000 0.000000 0.000000 0.000000 0.000000 -1.700417 -0.634884 42.280525 1.060405 -0.165250 -0.124935 -0.000000 0.000000 0.000000 0.000000 0.000000 0.000000 -40.270891 30.736209 44.893450 72.115214 -70.527705 81.852600 91.051892 39.328138 -69.434269 0.000000 0.000000 0.000000
